<svg xmlns="http://www.w3.org/2000/svg" xmlns:xlink="http://www.w3.org/1999/xlink" width="500" zoomAndPan="magnify" viewBox="0 0 375 374.999991" height="500" preserveAspectRatio="xMidYMid meet" version="1.0"><defs><clipPath id="501c12e485"><path d="M 21.5625 0 L 353.8125 0 L 353.8125 375 L 21.5625 375 Z M 21.5625 0 " clip-rule="nonzero"/></clipPath><clipPath id="990dac6fbc"><path d="M 23.523438 152.636719 L 37.5 152.636719 L 37.5 172.722656 L 23.523438 172.722656 Z M 23.523438 152.636719 " clip-rule="nonzero"/></clipPath></defs><g clip-path="url(#501c12e485)"><path fill="#68de68" d="M 37.558594 276.414062 L 122.914062 333.816406 C 184.269531 375 184.3125 374.957031 187.300781 374.910156 C 190.289062 374.867188 190.730469 374.957031 252.042969 333.816406 L 337.441406 276.414062 C 338.660156 275.59375 339.824219 274.699219 340.933594 273.734375 C 342.042969 272.773438 343.089844 271.742188 344.070312 270.652344 C 345.054688 269.558594 345.96875 268.410156 346.808594 267.207031 C 347.652344 266 348.417969 264.75 349.105469 263.453125 C 349.796875 262.152344 350.402344 260.820312 350.929688 259.445312 C 351.453125 258.074219 351.894531 256.675781 352.25 255.25 C 352.601562 253.820312 352.867188 252.378906 353.046875 250.921875 C 353.222656 249.460938 353.3125 247.996094 353.308594 246.527344 L 353.308594 128.429688 C 353.3125 126.960938 353.222656 125.496094 353.046875 124.039062 C 352.867188 122.582031 352.601562 121.140625 352.25 119.71875 C 351.894531 118.292969 351.453125 116.894531 350.929688 115.523438 C 350.402344 114.152344 349.796875 112.820312 349.105469 111.523438 C 348.417969 110.226562 347.652344 108.976562 346.808594 107.773438 C 345.96875 106.574219 345.054688 105.425781 344.070312 104.335938 C 343.089844 103.246094 342.042969 102.21875 340.933594 101.257812 C 339.824219 100.292969 338.660156 99.402344 337.441406 98.585938 L 252.042969 41.183594 C 193.058594 1.539062 190.820312 0.0429688 188.003906 0.0429688 L 187.699219 0.0429688 C 184.136719 0 184.226562 0 122.914062 41.183594 L 37.558594 98.585938 C 36.335938 99.402344 35.167969 100.289062 34.054688 101.25 C 32.945312 102.210938 31.894531 103.234375 30.910156 104.324219 C 29.921875 105.414062 29.007812 106.558594 28.164062 107.761719 C 27.316406 108.964844 26.550781 110.214844 25.859375 111.511719 C 25.167969 112.808594 24.558594 114.140625 24.03125 115.511719 C 23.503906 116.882812 23.0625 118.285156 22.707031 119.710938 C 22.351562 121.136719 22.085938 122.578125 21.910156 124.035156 C 21.730469 125.496094 21.644531 126.957031 21.644531 128.429688 L 21.644531 246.527344 C 21.644531 248 21.730469 249.464844 21.910156 250.925781 C 22.085938 252.382812 22.351562 253.828125 22.707031 255.257812 C 23.0625 256.683594 23.503906 258.082031 24.03125 259.457031 C 24.558594 260.832031 25.167969 262.167969 25.859375 263.464844 C 26.550781 264.761719 27.316406 266.015625 28.164062 267.21875 C 29.007812 268.421875 29.921875 269.570312 30.910156 270.660156 C 31.894531 271.753906 32.945312 272.78125 34.054688 273.742188 C 35.167969 274.707031 36.335938 275.597656 37.558594 276.414062 Z M 187.476562 22.855469 C 205.015625 34.546875 261.582031 72.566406 318.457031 110.804688 L 302.238281 122.011719 L 252.042969 88.257812 C 193.058594 48.65625 190.820312 47.160156 188.003906 47.160156 L 187.699219 47.160156 C 184.136719 47.117188 184.226562 47.074219 122.914062 88.257812 L 72.808594 121.96875 L 56.894531 110.539062 C 113.636719 72.390625 170.027344 34.503906 187.476562 22.855469 Z M 230.332031 170.445312 C 192.488281 145.042969 190.421875 143.855469 188.003906 143.855469 L 187.699219 143.855469 C 184.621094 143.8125 184.179688 143.855469 144.625 170.359375 L 126.558594 158.273438 L 187.476562 117.394531 C 194.992188 122.449219 212.179688 133.921875 248.394531 158.273438 Z M 211.738281 182.929688 L 187.476562 199.148438 L 163.261719 182.929688 L 187.476562 166.667969 Z M 267.03125 145.789062 L 252.042969 135.722656 C 193.058594 96.125 190.820312 94.628906 188.003906 94.628906 L 187.699219 94.628906 C 184.136719 94.585938 184.226562 94.542969 122.914062 135.722656 L 107.96875 145.789062 L 91.265625 134.539062 C 152.667969 93.265625 177.851562 76.390625 187.476562 69.972656 C 197.105469 76.390625 222.421875 93.308594 283.734375 134.539062 Z M 42.390625 134.800781 L 42.390625 128.429688 C 42.390625 127.902344 42.523438 127.375 42.566406 126.847656 L 122.914062 180.820312 C 184.269531 222.046875 184.3125 222.003906 187.300781 221.957031 C 190.289062 221.914062 190.730469 222.003906 252.042969 180.820312 L 332.386719 126.847656 C 332.433594 127.375 332.609375 127.902344 332.609375 128.429688 L 332.609375 143.722656 C 332.605469 144.972656 332.449219 146.203125 332.144531 147.410156 C 331.839844 148.621094 331.390625 149.777344 330.800781 150.878906 C 330.210938 151.976562 329.496094 152.988281 328.65625 153.914062 C 327.816406 154.835938 326.878906 155.644531 325.839844 156.339844 C 233.101562 218.707031 199.082031 241.515625 187.476562 249.296875 C 175.875 241.515625 141.855469 218.707031 49.117188 156.335938 C 48.082031 155.644531 47.144531 154.835938 46.308594 153.910156 C 45.472656 152.984375 44.761719 151.972656 44.175781 150.871094 C 43.589844 149.773438 43.144531 148.617188 42.84375 147.40625 C 42.539062 146.199219 42.390625 144.96875 42.390625 143.722656 Z M 42.390625 176.820312 L 122.914062 230.96875 C 184.269531 272.152344 184.3125 272.109375 187.300781 272.0625 C 190.289062 272.019531 190.730469 272.152344 252.042969 230.96875 L 332.609375 176.820312 L 332.609375 196.421875 C 332.605469 197.675781 332.453125 198.90625 332.148438 200.121094 C 331.84375 201.335938 331.394531 202.492188 330.804688 203.597656 C 330.214844 204.703125 329.5 205.71875 328.660156 206.644531 C 327.820312 207.574219 326.878906 208.382812 325.839844 209.082031 C 266.546875 248.945312 205.761719 289.820312 187.476562 301.996094 C 169.195312 289.820312 108.40625 248.945312 49.117188 209.082031 C 48.082031 208.382812 47.144531 207.566406 46.308594 206.640625 C 45.472656 205.710938 44.761719 204.695312 44.175781 203.589844 C 43.589844 202.488281 43.144531 201.328125 42.84375 200.117188 C 42.542969 198.902344 42.390625 197.671875 42.390625 196.421875 Z M 42.390625 229.519531 L 122.914062 283.667969 C 184.269531 324.894531 184.3125 324.851562 187.300781 324.804688 C 190.289062 324.761719 190.730469 324.851562 252.042969 283.667969 L 332.609375 229.519531 L 332.609375 246.527344 C 332.609375 247.78125 332.457031 249.011719 332.152344 250.226562 C 331.847656 251.441406 331.402344 252.601562 330.8125 253.707031 C 330.222656 254.808594 329.503906 255.824219 328.664062 256.753906 C 327.824219 257.679688 326.882812 258.492188 325.839844 259.1875 C 233.101562 321.554688 199.082031 344.367188 187.476562 352.144531 C 175.875 344.367188 141.855469 321.554688 49.117188 259.1875 C 48.078125 258.488281 47.140625 257.679688 46.300781 256.75 C 45.464844 255.820312 44.75 254.804688 44.164062 253.703125 C 43.578125 252.597656 43.132812 251.4375 42.835938 250.222656 C 42.535156 249.011719 42.386719 247.777344 42.390625 246.527344 Z M 42.390625 229.519531 " fill-opacity="1" fill-rule="nonzero"/></g><g clip-path="url(#990dac6fbc)"><path fill="#68de68" d="M 23.523438 152.636719 L 37.5 152.636719 L 37.5 172.726562 L 23.523438 172.726562 Z M 23.523438 152.636719 " fill-opacity="1" fill-rule="nonzero"/></g></svg>